<svg xmlns="http://www.w3.org/2000/svg" viewBox="0 0 512 512"><title>Close</title><g id="Close"><g id="Close-2" data-name="Close"><path d="M256,73.82A182.18,182.18,0,1,0,438.18,256,182.18,182.18,0,0,0,256,73.82Zm90.6147,272.7243a24.5542,24.5542,0,0,1-34.7121,0l-54.6633-54.6678-57.1419,57.1464a24.5439,24.5439,0,0,1-34.704-34.7166l57.1374-57.1284-53.2-53.2089a24.5471,24.5471,0,0,1,34.7121-34.7175l53.1963,53.2089,50.7168-50.7213a24.5471,24.5471,0,0,1,34.713,34.7166l-50.7132,50.7222,54.6588,54.65A24.56,24.56,0,0,1,346.6147,346.5445Z"/></g></g></svg>