<?xml version="1.0" encoding="iso-8859-1"?>
<!-- Generator: Adobe Illustrator 19.0.0, SVG Export Plug-In . SVG Version: 6.00 Build 0)  -->
<svg version="1.1" id="Layer_1" xmlns="http://www.w3.org/2000/svg" xmlns:xlink="http://www.w3.org/1999/xlink" x="0px" y="0px"
	 viewBox="0 0 512 512" style="enable-background:new 0 0 512 512;" xml:space="preserve">
<path style="fill:#E2453D;" d="M428.823,503.916h29.525c7.143,0,12.935-5.792,12.935-12.935v-56.844
	c0,7.143-5.792,12.935-12.935,12.935h-211.51H53.652H40.717v43.909c0,7.143,5.792,12.935,12.935,12.935"/>
<path style="fill:#D6E0E0;" d="M161.864,503.916h281.24v-56.844H246.838H53.652H40.717v43.909c0,7.143,5.792,12.935,12.935,12.935
	h81.983"/>
<path style="fill:#FF6A5E;" d="M458.348,8.084H53.652c-7.143,0-12.935,5.792-12.935,12.935v185.155v227.962v12.935h12.935h193.186
	h211.51c7.143,0,12.935-5.792,12.935-12.935V21.019C471.283,13.876,465.491,8.084,458.348,8.084z"/>
<g style="opacity:0.2;">
	<path style="fill:#020202;" d="M66.021,490.981v-43.909v-12.935V206.174V21.019c0-7.143,5.79-12.935,12.935-12.935H53.652
		c-7.143,0-12.935,5.792-12.935,12.935v185.155v227.962v12.935v43.91c0,7.143,5.792,12.935,12.935,12.935h25.304
		C71.813,503.916,66.021,498.124,66.021,490.981z"/>
</g>
<path d="M198.602,276.004v-43.465l-16.924,32.367h-6.936l-16.924-32.367v43.465h-12.762v-65.66h13.687l19.42,37.361l19.605-37.361
	h13.594v65.66H198.602z"/>
<path d="M270.642,264.814v11.19H225.05v-65.66h44.76v11.19h-31.997v15.815h27.651v10.356h-27.651v17.109H270.642z"/>
<path d="M293.391,233.926v42.078h-12.762v-65.66h9.896l34.217,43.094v-43.003h12.762v65.567h-10.358L293.391,233.926z"/>
<path d="M378.934,265.184c3.02,0,5.563-0.615,7.629-1.85c2.065-1.233,3.729-2.835,4.994-4.81c1.263-1.971,2.158-4.238,2.682-6.797
	c0.523-2.558,0.787-5.193,0.787-7.907v-33.477h12.67v33.477c0,4.501-0.541,8.726-1.619,12.671
	c-1.079,3.945-2.773,7.398-5.087,10.356c-2.312,2.96-5.287,5.303-8.924,7.029c-3.638,1.728-7.984,2.589-13.039,2.589
	c-5.241,0-9.696-0.909-13.363-2.727c-3.669-1.818-6.644-4.223-8.924-7.213c-2.282-2.989-3.93-6.458-4.949-10.404
	c-1.016-3.944-1.525-8.045-1.525-12.3v-33.477h12.762v33.476c0,2.775,0.261,5.442,0.786,8c0.522,2.559,1.417,4.825,2.681,6.797
	c1.263,1.974,2.914,3.561,4.949,4.763C373.477,264.582,375.974,265.184,378.934,265.184z"/>
<g>
	<path style="fill:#020202;" d="M458.348,0H53.652c-11.59,0-21.019,9.429-21.019,21.019v426.053v43.909
		c0,11.59,9.429,21.019,21.019,21.019h81.983c4.465,0,8.084-3.618,8.084-8.084s-3.62-8.084-8.084-8.084H53.652
		c-2.674,0-4.851-2.176-4.851-4.851v-35.825H435.02v40.675h-6.197H161.864c-4.465,0-8.084,3.618-8.084,8.084S157.4,512,161.864,512
		h266.959h14.281h15.244c11.59,0,21.019-9.429,21.019-21.019v-56.844V21.019C479.367,9.429,469.937,0,458.348,0z M48.802,21.019
		c0-2.674,2.176-4.851,4.851-4.851h26.219v422.819H48.802V21.019z M96.039,438.988V16.168h362.307c2.674,0,4.851,2.176,4.851,4.851
		v413.118c0,2.674-2.176,4.851-4.851,4.851h-15.244H96.039z M463.198,490.981c0,2.674-2.176,4.851-4.851,4.851h-7.159v-40.675h7.159
		c0.66,0,1.311-0.039,1.955-0.099c0.1-0.01,0.201-0.015,0.3-0.026c0.61-0.066,1.213-0.16,1.807-0.277
		c0.116-0.023,0.233-0.047,0.348-0.072c0.147-0.031,0.295-0.056,0.441-0.091V490.981z"/>
	<path style="fill:#020202;" d="M421.457,475.494c0-4.466-3.62-8.084-8.084-8.084H71.68c-4.465,0-8.084,3.618-8.084,8.084
		s3.62,8.084,8.084,8.084h341.693C417.838,483.578,421.457,479.958,421.457,475.494z"/>
	<path style="fill:#020202;" d="M371.328,169.568h-52.207c-5.786,0-11.226-2.254-15.319-6.347
		c-2.969-2.967-4.603-6.914-4.603-11.111c0-4.198,1.634-8.145,4.604-11.113c2.068-2.068,4.82-3.209,7.745-3.209
		c2.926,0,5.678,1.14,7.747,3.21c1.35,1.35,2.092,3.143,2.092,5.053c0,1.91-0.743,3.705-2.092,5.053
		c-3.158,3.157-3.158,8.276-0.001,11.432c3.157,3.156,8.276,3.158,11.432,0.001c4.404-4.403,6.83-10.258,6.83-16.486
		c0.001-6.228-2.424-12.083-6.827-16.487c-5.123-5.123-11.934-7.944-19.18-7.944c-7.246,0-14.056,2.822-19.178,7.944
		c-6.023,6.022-9.339,14.029-9.339,22.545c0,8.515,3.316,16.522,9.338,22.543c7.145,7.146,16.645,11.082,26.751,11.082h52.208
		c4.466,0,8.084-3.618,8.084-8.084S375.794,169.568,371.328,169.568z"/>
	<path style="fill:#020202;" d="M237.101,121.622c-7.245,0-14.057,2.821-19.18,7.944c-4.404,4.404-6.828,10.259-6.828,16.487
		c0.001,6.228,2.426,12.083,6.831,16.486c3.157,3.158,8.276,3.157,11.432-0.001c3.157-3.157,3.156-8.276-0.001-11.432
		c-1.35-1.35-2.093-3.144-2.093-5.053c0-1.909,0.744-3.704,2.092-5.053c2.07-2.07,4.82-3.21,7.747-3.21
		c2.925,0,5.676,1.14,7.746,3.21c2.969,2.967,4.604,6.914,4.604,11.112c0,4.197-1.635,8.143-4.604,11.112
		c-4.091,4.092-9.531,6.346-15.318,6.346H177.32c-4.465,0-8.084,3.618-8.084,8.084c0,4.466,3.62,8.084,8.084,8.084h52.208
		c10.105,0,19.607-3.935,26.75-11.081c6.023-6.022,9.339-14.029,9.339-22.544c0-8.516-3.316-16.523-9.338-22.544
		C251.157,124.444,244.346,121.622,237.101,121.622z"/>
	<path style="fill:#020202;" d="M371.328,301.071h-52.207c-10.106,0-19.606,3.935-26.75,11.081
		c-6.023,6.022-9.339,14.029-9.339,22.544c0,8.516,3.316,16.523,9.338,22.544c5.123,5.123,11.933,7.945,19.179,7.945
		c7.246,0,14.057-2.821,19.18-7.944c4.403-4.404,6.828-10.259,6.827-16.487c0-6.228-2.425-12.083-6.83-16.486
		c-3.158-3.158-8.277-3.157-11.432,0.001c-3.157,3.157-3.157,8.276,0.001,11.432c1.35,1.35,2.092,3.144,2.092,5.053
		c0,1.909-0.743,3.704-2.092,5.053c-2.068,2.07-4.82,3.21-7.747,3.21c-2.925,0-5.677-1.14-7.746-3.21
		c-2.969-2.967-4.603-6.914-4.603-11.112c0-4.197,1.634-8.143,4.604-11.112c4.092-4.092,9.532-6.346,15.318-6.346h52.208
		c4.466,0,8.084-3.618,8.084-8.084S375.794,301.071,371.328,301.071z"/>
	<path style="fill:#020202;" d="M229.528,301.071H177.32c-4.465,0-8.084,3.618-8.084,8.084s3.62,8.084,8.084,8.084h52.208
		c5.787,0,11.226,2.254,15.318,6.347c2.969,2.967,4.604,6.914,4.604,11.111c0,4.198-1.635,8.145-4.604,11.113
		c-2.068,2.068-4.819,3.209-7.745,3.209c-2.926,0-5.677-1.14-7.747-3.21c-1.35-1.35-2.092-3.143-2.092-5.053
		s0.744-3.705,2.093-5.053c3.157-3.157,3.158-8.276,0.001-11.432c-3.156-3.158-8.275-3.157-11.432-0.001
		c-4.404,4.403-6.83,10.258-6.831,16.486c0,6.228,2.425,12.083,6.828,16.487c5.123,5.123,11.934,7.944,19.18,7.944
		c7.245,0,14.056-2.822,19.178-7.944c6.023-6.022,9.339-14.029,9.339-22.545c0-8.515-3.316-16.522-9.338-22.543
		C249.135,305.008,239.634,301.071,229.528,301.071z"/>
	<path style="fill:#020202;" d="M403.133,169.568h-7.006c-4.466,0-8.084,3.618-8.084,8.084s3.618,8.084,8.084,8.084h7.006
		c4.465,0,8.084-3.618,8.084-8.084S407.598,169.568,403.133,169.568z"/>
	<path style="fill:#020202;" d="M403.133,301.071h-7.006c-4.466,0-8.084,3.618-8.084,8.084s3.618,8.084,8.084,8.084h7.006
		c4.465,0,8.084-3.618,8.084-8.084S407.598,301.071,403.133,301.071z"/>
	<path style="fill:#020202;" d="M153.141,169.568h-7.006c-4.465,0-8.084,3.618-8.084,8.084s3.62,8.084,8.084,8.084h7.006
		c4.465,0,8.084-3.618,8.084-8.084S157.605,169.568,153.141,169.568z"/>
	<path style="fill:#020202;" d="M153.141,301.071h-7.006c-4.465,0-8.084,3.618-8.084,8.084s3.62,8.084,8.084,8.084h7.006
		c4.465,0,8.084-3.618,8.084-8.084S157.605,301.071,153.141,301.071z"/>
</g>
<polygon points="403.133,192.743 403.133,192.743 403.133,192.743 403.133,192.743 403.133,194.898 403.133,194.898 
	403.133,194.898 403.133,194.898 "/>
<g>
</g>
<g>
</g>
<g>
</g>
<g>
</g>
<g>
</g>
<g>
</g>
<g>
</g>
<g>
</g>
<g>
</g>
<g>
</g>
<g>
</g>
<g>
</g>
<g>
</g>
<g>
</g>
<g>
</g>
</svg>
